<?xml version="1.0" encoding="utf-8" standalone="no"?>
<!DOCTYPE svg PUBLIC "-//W3C//DTD SVG 1.1//EN"
  "http://www.w3.org/Graphics/SVG/1.1/DTD/svg11.dtd">
<svg xmlns:xlink="http://www.w3.org/1999/xlink" width="178.080781pt" height="821.153048pt" viewBox="0 0 178.080781 821.153048" xmlns="http://www.w3.org/2000/svg" version="1.1">
 <metadata>
  <rdf:RDF xmlns:dc="http://purl.org/dc/elements/1.1/" xmlns:cc="http://creativecommons.org/ns#" xmlns:rdf="http://www.w3.org/1999/02/22-rdf-syntax-ns#">
   <cc:Work>
    <dc:type rdf:resource="http://purl.org/dc/dcmitype/StillImage"/>
    <dc:date>2025-05-04T21:22:32.999051</dc:date>
    <dc:format>image/svg+xml</dc:format>
    <dc:creator>
     <cc:Agent>
      <dc:title>Matplotlib v3.8.4, https://matplotlib.org/</dc:title>
     </cc:Agent>
    </dc:creator>
   </cc:Work>
  </rdf:RDF>
 </metadata>
 <defs>
  <style type="text/css">*{stroke-linejoin: round; stroke-linecap: butt}</style>
 </defs>
 <g id="figure_1">
  <g id="patch_1">
   <path d="M 0 821.153048 
L 178.080781 821.153048 
L 178.080781 0 
L 0 0 
z
" style="fill: #ffffff"/>
  </g>
  <g id="axes_1">
   <g id="patch_2">
    <path d="M 63.840391 199.839964 
L 114.240391 199.839964 
L 114.240391 54.678673 
L 63.840391 54.678673 
z
" style="fill: #ffffff"/>
   </g>
   <g id="matplotlib.axis_1">
    <g id="xtick_1">
     <g id="line2d_1">
      <defs>
       <path id="m3e56d95495" d="M 0 0 
L 0 5 
" style="stroke: #000000"/>
      </defs>
      <g>
       <use xlink:href="#m3e56d95495" x="89.040391" y="199.839964" style="stroke: #000000"/>
      </g>
     </g>
    </g>
   </g>
   <g id="matplotlib.axis_2">
    <g id="ytick_1">
     <g id="line2d_2">
      <defs>
       <path id="mde11a7daab" d="M 0 0 
L -5 0 
" style="stroke: #000000"/>
      </defs>
      <g>
       <use xlink:href="#mde11a7daab" x="63.840391" y="155.300167" style="stroke: #000000"/>
      </g>
     </g>
     <g id="text_1">
      <!-- −8 -->
      <g transform="translate(37.649766 159.85923) scale(0.12 -0.12)">
       <defs>
        <path id="DejaVuSans-2212" d="M 678 2272 
L 4684 2272 
L 4684 1741 
L 678 1741 
L 678 2272 
z
" transform="scale(0.015625)"/>
        <path id="DejaVuSans-38" d="M 2034 2216 
Q 1584 2216 1326 1975 
Q 1069 1734 1069 1313 
Q 1069 891 1326 650 
Q 1584 409 2034 409 
Q 2484 409 2743 651 
Q 3003 894 3003 1313 
Q 3003 1734 2745 1975 
Q 2488 2216 2034 2216 
z
M 1403 2484 
Q 997 2584 770 2862 
Q 544 3141 544 3541 
Q 544 4100 942 4425 
Q 1341 4750 2034 4750 
Q 2731 4750 3128 4425 
Q 3525 4100 3525 3541 
Q 3525 3141 3298 2862 
Q 3072 2584 2669 2484 
Q 3125 2378 3379 2068 
Q 3634 1759 3634 1313 
Q 3634 634 3220 271 
Q 2806 -91 2034 -91 
Q 1263 -91 848 271 
Q 434 634 434 1313 
Q 434 1759 690 2068 
Q 947 2378 1403 2484 
z
M 1172 3481 
Q 1172 3119 1398 2916 
Q 1625 2713 2034 2713 
Q 2441 2713 2670 2916 
Q 2900 3119 2900 3481 
Q 2900 3844 2670 4047 
Q 2441 4250 2034 4250 
Q 1625 4250 1398 4047 
Q 1172 3844 1172 3481 
z
" transform="scale(0.015625)"/>
       </defs>
       <use xlink:href="#DejaVuSans-2212"/>
       <use xlink:href="#DejaVuSans-38" x="83.789062"/>
      </g>
     </g>
    </g>
    <g id="ytick_2">
     <g id="line2d_3">
      <g>
       <use xlink:href="#mde11a7daab" x="63.840391" y="108.28854" style="stroke: #000000"/>
      </g>
     </g>
     <g id="text_2">
      <!-- −4 -->
      <g transform="translate(37.649766 112.847603) scale(0.12 -0.12)">
       <defs>
        <path id="DejaVuSans-34" d="M 2419 4116 
L 825 1625 
L 2419 1625 
L 2419 4116 
z
M 2253 4666 
L 3047 4666 
L 3047 1625 
L 3713 1625 
L 3713 1100 
L 3047 1100 
L 3047 0 
L 2419 0 
L 2419 1100 
L 313 1100 
L 313 1709 
L 2253 4666 
z
" transform="scale(0.015625)"/>
       </defs>
       <use xlink:href="#DejaVuSans-2212"/>
       <use xlink:href="#DejaVuSans-34" x="83.789062"/>
      </g>
     </g>
    </g>
    <g id="ytick_3">
     <g id="line2d_4">
      <g>
       <use xlink:href="#mde11a7daab" x="63.840391" y="61.276914" style="stroke: #000000"/>
      </g>
     </g>
     <g id="text_3">
      <!-- 0 -->
      <g transform="translate(47.705391 65.835976) scale(0.12 -0.12)">
       <defs>
        <path id="DejaVuSans-30" d="M 2034 4250 
Q 1547 4250 1301 3770 
Q 1056 3291 1056 2328 
Q 1056 1369 1301 889 
Q 1547 409 2034 409 
Q 2525 409 2770 889 
Q 3016 1369 3016 2328 
Q 3016 3291 2770 3770 
Q 2525 4250 2034 4250 
z
M 2034 4750 
Q 2819 4750 3233 4129 
Q 3647 3509 3647 2328 
Q 3647 1150 3233 529 
Q 2819 -91 2034 -91 
Q 1250 -91 836 529 
Q 422 1150 422 2328 
Q 422 3509 836 4129 
Q 1250 4750 2034 4750 
z
" transform="scale(0.015625)"/>
       </defs>
       <use xlink:href="#DejaVuSans-30"/>
      </g>
     </g>
    </g>
   </g>
   <g id="patch_3">
    <path d="M 63.840391 199.839964 
L 63.840391 54.678673 
" style="fill: none; stroke: #000000; stroke-width: 0.8; stroke-linejoin: miter; stroke-linecap: square"/>
   </g>
   <g id="patch_4">
    <path d="M 63.840391 199.839964 
L 114.240391 199.839964 
" style="fill: none; stroke: #000000; stroke-width: 0.8; stroke-linejoin: miter; stroke-linecap: square"/>
   </g>
   <g id="text_4">
    <g id="patch_5">
     <path d="M 71.040391 163.627413 
L 114.386641 163.627413 
L 114.386641 93.944913 
L 71.040391 93.944913 
L 71.040391 163.627413 
z
" style="fill: none"/>
    </g>
    <path d="M 84.133063 142.396795 
L 84.133063 147.283946 
L 86.557632 147.283946 
Q 91.833494 147.283946 94.073796 146.726667 
Q 96.314098 146.167822 96.314098 144.832544 
Q 96.314098 143.506657 94.073796 142.952509 
Q 91.833494 142.396795 86.557632 142.396795 
L 84.133063 142.396795 
z
M 75.191253 141.041166 
L 84.773149 141.041166 
Q 95.858279 141.041166 100.736511 141.930309 
Q 105.624442 142.817885 105.624442 144.832544 
Q 105.624442 146.853464 100.736511 147.747302 
Q 95.858279 148.639575 84.773149 148.639575 
L 75.191253 148.639575 
L 75.191253 141.041166 
z
" style="fill: #e2dbac"/>
   </g>
   <g id="text_5">
    <g id="patch_6">
     <path d="M 71.040391 153.863098 
L 114.386641 153.863098 
L 114.386641 84.180598 
L 71.040391 84.180598 
L 71.040391 153.863098 
z
" style="fill: none"/>
    </g>
    <path d="M 94.199873 138.875606 
L 85.258063 138.875606 
L 85.258063 132.743516 
L 73.765606 132.743516 
L 73.765606 131.463961 
L 105.682632 131.463961 
L 105.682632 132.743516 
L 94.199873 132.743516 
L 94.199873 138.875606 
z
" style="fill: #e2daab"/>
   </g>
   <g id="text_6">
    <g id="patch_7">
     <path d="M 71.040391 144.299758 
L 114.386641 144.299758 
L 114.386641 74.617258 
L 71.040391 74.617258 
L 71.040391 144.299758 
z
" style="fill: none"/>
    </g>
    <path d="M 89.709572 128.155173 
L 97.681554 122.287969 
L 106.681554 122.287969 
L 95.926166 129.312983 
L 83.53177 129.312983 
L 72.766684 122.287969 
L 81.766684 122.287969 
L 89.709572 128.155173 
z
" style="fill: #e2d9ab"/>
   </g>
   <g id="text_7">
    <g id="patch_8">
     <path d="M 71.040391 135.152471 
L 114.386641 135.152471 
L 114.386641 65.469971 
L 71.040391 65.469971 
L 71.040391 135.152471 
z
" style="fill: none"/>
    </g>
    <path d="M 104.315175 120.167771 
L 76.131985 120.167771 
L 76.131985 114.262243 
L 104.315175 114.262243 
L 104.315175 115.29273 
L 85.073796 115.29273 
L 85.073796 116.562893 
L 102.501598 116.562893 
L 102.501598 117.593379 
L 85.073796 117.593379 
L 85.073796 119.137285 
L 104.315175 119.137285 
L 104.315175 120.167771 
z
" style="fill: #e4dfae"/>
   </g>
   <g id="text_8">
    <g id="patch_9">
     <path d="M 71.040391 127.209857 
L 114.386641 127.209857 
L 114.386641 57.527357 
L 71.040391 57.527357 
L 71.040391 127.209857 
z
" style="fill: none"/>
    </g>
    <path d="M 75.191253 106.58005 
L 84.133063 106.58005 
L 84.133063 108.731747 
L 95.315175 108.731747 
L 95.315175 106.58005 
L 104.256985 106.58005 
L 104.256985 112.225639 
L 95.315175 112.225639 
L 95.315175 109.713387 
L 84.133063 109.713387 
L 84.133063 112.225639 
L 75.191253 112.225639 
L 75.191253 106.58005 
z
" style="fill: #e5e1af"/>
   </g>
   <g id="text_9">
    <g id="patch_10">
     <path d="M 71.040391 119.546962 
L 114.386641 119.546962 
L 114.386641 49.864462 
L 71.040391 49.864462 
L 71.040391 119.546962 
z
" style="fill: none"/>
    </g>
    <path d="M 76.258063 100.317951 
L 76.258063 99.420489 
L 103.199873 99.420489 
L 103.199873 100.317951 
L 94.199873 100.317951 
L 94.199873 103.666214 
L 103.199873 103.666214 
L 103.199873 104.563675 
L 76.258063 104.563675 
L 76.258063 103.666214 
L 85.258063 103.666214 
L 85.258063 100.317951 
L 76.258063 100.317951 
z
" style="fill: #e1d7aa"/>
   </g>
   <g id="text_10">
    <g id="patch_11">
     <path d="M 71.040391 112.4247 
L 114.386641 112.4247 
L 114.386641 42.7422 
L 71.040391 42.7422 
L 71.040391 112.4247 
z
" style="fill: none"/>
    </g>
    <path d="M 104.741899 93.663767 
L 85.50052 93.663767 
L 85.50052 94.648284 
L 103.015606 94.648284 
L 103.015606 95.447025 
L 85.50052 95.447025 
L 85.50052 97.442463 
L 76.55871 97.442463 
L 76.55871 92.865026 
L 104.741899 92.865026 
L 104.741899 93.663767 
z
" style="fill: #e2dbac"/>
   </g>
   <g id="text_11">
    <g id="patch_12">
     <path d="M 71.040391 105.911239 
L 114.386641 105.911239 
L 114.386641 36.228739 
L 71.040391 36.228739 
L 71.040391 105.911239 
z
" style="fill: none"/>
    </g>
    <path d="M 71.282848 88.045396 
L 80.922934 88.045396 
L 89.709572 89.205088 
L 98.525304 88.045396 
L 108.165391 88.045396 
L 94.199873 89.794449 
L 94.199873 90.932137 
L 85.258063 90.932137 
L 85.258063 89.794449 
L 71.282848 88.045396 
z
" style="fill: #e3ddad"/>
   </g>
   <g id="text_12">
    <g id="patch_13">
     <path d="M 71.040391 101.217128 
L 114.386641 101.217128 
L 114.386641 31.534628 
L 71.040391 31.534628 
L 71.040391 101.217128 
z
" style="fill: none"/>
    </g>
    <path d="M 84.889529 84.418037 
L 84.889529 85.059337 
L 88.555477 85.059337 
Q 92.948796 85.059337 94.72358 84.987781 
Q 96.498365 84.915776 96.498365 84.738462 
Q 96.498365 84.561148 94.72358 84.489593 
Q 92.948796 84.418037 88.555477 84.418037 
L 84.889529 84.418037 
z
M 75.947718 84.054859 
L 88.225735 84.054859 
Q 97.59427 84.054859 101.696641 84.215971 
Q 105.799011 84.377084 105.799011 84.738462 
Q 105.799011 85.09984 101.696641 85.260952 
Q 97.59427 85.422065 88.225735 85.422065 
L 84.889529 85.422065 
L 84.889529 86.239328 
L 75.947718 86.239328 
L 75.947718 84.054859 
z
" style="fill: #e3dcad"/>
   </g>
   <g id="text_13">
    <g id="patch_14">
     <path d="M 71.040391 97.278729 
L 114.386641 97.278729 
L 114.386641 27.596229 
L 71.040391 27.596229 
L 71.040391 97.278729 
z
" style="fill: none"/>
    </g>
    <path d="M 89.709572 80.772902 
L 85.50052 81.538365 
L 93.957416 81.538365 
L 89.709572 80.772902 
z
M 84.259141 80.434701 
L 95.198796 80.434701 
L 107.408925 82.304979 
L 98.467115 82.304979 
L 95.68371 81.842016 
L 83.706339 81.842016 
L 80.981123 82.304979 
L 72.039313 82.304979 
L 84.259141 80.434701 
z
" style="fill: #e3dcad"/>
   </g>
   <g id="text_14">
    <g id="patch_15">
     <path d="M 71.040391 93.685866 
L 114.386641 93.685866 
L 114.386641 24.003366 
L 71.040391 24.003366 
L 71.040391 93.685866 
z
" style="fill: none"/>
    </g>
    <path d="M 86.499442 77.89354 
Q 79.739744 77.792265 77.34427 77.681091 
Q 74.948796 77.569917 74.948796 77.381835 
Q 74.948796 77.14045 78.886296 77.002625 
Q 82.833494 76.864419 89.709572 76.864419 
Q 92.832416 76.864419 95.955261 76.892593 
Q 99.078106 76.920387 102.133063 76.974832 
L 102.133063 77.317491 
Q 99.252675 77.237918 96.285003 77.196418 
Q 93.31733 77.154537 90.407848 77.154537 
Q 87.168623 77.154537 85.432632 77.205936 
Q 83.706339 77.256955 83.706339 77.352138 
Q 83.706339 77.426 84.967115 77.474353 
Q 86.227891 77.522325 90.22358 77.580578 
L 94.073796 77.637688 
Q 99.533925 77.716118 102.103968 77.845948 
Q 104.68371 77.975778 104.68371 78.172998 
Q 104.68371 78.442176 100.62983 78.574671 
Q 96.585649 78.707166 88.410003 78.707166 
Q 85.044701 78.707166 81.660003 78.675946 
Q 78.285003 78.644345 75.133063 78.582286 
L 75.133063 78.219447 
Q 78.711727 78.31958 82.057632 78.368314 
Q 85.403537 78.417048 88.681554 78.417048 
Q 91.978968 78.417048 93.792546 78.358415 
Q 95.615822 78.299401 95.615822 78.193177 
Q 95.615822 78.113604 94.403537 78.053448 
Q 93.191253 77.993292 90.892761 77.959026 
L 86.499442 77.89354 
z
" style="fill: #e4dfae"/>
   </g>
   <g id="text_15">
    <g id="patch_16">
     <path d="M 71.040391 90.109456 
L 114.386641 90.109456 
L 114.386641 20.426956 
L 71.040391 20.426956 
L 71.040391 90.109456 
z
" style="fill: none"/>
    </g>
    <path d="M 95.499442 74.298834 
Q 96.828106 74.309022 97.81733 74.347955 
Q 98.806554 74.386524 100.222503 74.496773 
L 108.407848 75.132432 
L 98.593192 75.132432 
L 93.133063 74.686706 
Q 92.890606 74.667058 92.502675 74.634311 
Q 90.107201 74.434189 86.858279 74.434189 
L 84.016684 74.434189 
L 84.016684 75.132432 
L 75.074873 75.132432 
L 75.074873 73.366268 
L 87.983279 73.366268 
Q 96.711727 73.366268 100.513451 73.487068 
Q 104.315175 73.607505 104.315175 73.880398 
Q 104.315175 74.062327 102.045779 74.170029 
Q 99.776382 74.277367 95.499442 74.298834 
z
M 84.016684 73.659901 
L 84.016684 74.14092 
L 88.225735 74.14092 
Q 91.891684 74.14092 93.482201 74.08525 
Q 95.072718 74.029216 95.072718 73.899683 
Q 95.072718 73.771241 93.491899 73.715571 
Q 91.920779 73.659901 88.225735 73.659901 
L 84.016684 73.659901 
z
" style="fill: #e0d4a8"/>
   </g>
   <g id="text_16">
    <g id="patch_17">
     <path d="M 71.040391 86.621194 
L 114.386641 86.621194 
L 114.386641 16.938694 
L 71.040391 16.938694 
L 71.040391 86.621194 
z
" style="fill: none"/>
    </g>
    <path d="M 97.468192 71.321974 
L 97.468192 71.013161 
L 91.34858 71.013161 
L 91.34858 70.74425 
L 105.285003 70.74425 
L 105.285003 71.48575 
Q 102.71496 71.564862 99.601813 71.605806 
Q 96.498365 71.646403 92.948796 71.646403 
Q 84.162158 71.646403 79.37121 71.427804 
Q 74.58996 71.209205 74.58996 70.807053 
Q 74.58996 70.398309 79.419701 70.182486 
Q 84.259141 69.966663 93.37552 69.966663 
Q 96.100735 69.966663 98.738666 69.994422 
Q 101.376598 70.02218 103.684787 70.074227 
L 103.684787 70.428496 
Q 101.803322 70.34175 99.359356 70.298031 
Q 96.925089 70.253964 94.015606 70.253964 
Q 88.924011 70.253964 86.40246 70.391369 
Q 83.890606 70.528427 83.890606 70.807053 
Q 83.890606 71.077005 86.315175 71.218227 
Q 88.739744 71.359102 93.37552 71.359102 
Q 94.772072 71.359102 95.800089 71.35008 
Q 96.828106 71.340711 97.468192 71.321974 
z
" style="fill: #e3dcac"/>
   </g>
   <g id="text_17">
    <g id="patch_18">
     <path d="M 71.040391 83.221078 
L 114.386641 83.221078 
L 114.386641 13.538578 
L 71.040391 13.538578 
L 71.040391 83.221078 
z
" style="fill: none"/>
    </g>
    <path d="M 77.858279 68.244642 
L 77.858279 66.796303 
L 86.800089 66.796303 
L 86.800089 67.991914 
L 105.925089 67.991914 
L 105.925089 68.244642 
L 77.858279 68.244642 
z
" style="fill: #e4deae"/>
   </g>
   <g id="text_18">
    <g id="patch_19">
     <path d="M 71.040391 80.074825 
L 114.386641 80.074825 
L 114.386641 10.392325 
L 71.040391 10.392325 
L 71.040391 80.074825 
z
" style="fill: none"/>
    </g>
    <path d="M 90.921856 64.962991 
Q 90.495132 64.964824 90.204184 64.965435 
Q 89.922934 64.966046 89.651382 64.966046 
Q 81.863666 64.966046 77.84858 64.858308 
Q 73.833494 64.750366 73.833494 64.539778 
Q 73.833494 64.328375 77.84858 64.22023 
Q 81.863666 64.112084 89.709572 64.112084 
Q 97.59427 64.112084 101.609356 64.22023 
Q 105.624442 64.328375 105.624442 64.539778 
Q 105.624442 64.684786 103.713882 64.782545 
Q 101.803322 64.880303 98.166468 64.922258 
L 103.801166 65.022868 
L 97.681554 65.105555 
L 90.921856 64.962991 
z
M 89.709572 64.258315 
Q 86.28608 64.258315 84.705261 64.324913 
Q 83.134141 64.391511 83.134141 64.539778 
Q 83.134141 64.687434 84.705261 64.754032 
Q 86.28608 64.820426 89.709572 64.820426 
Q 93.162158 64.820426 94.733279 64.754032 
Q 96.314098 64.687434 96.314098 64.539778 
Q 96.314098 64.391511 94.733279 64.324913 
Q 93.162158 64.258315 89.709572 64.258315 
z
" style="fill: #e1d8aa"/>
   </g>
   <g id="text_19">
    <g id="patch_20">
     <path d="M 71.040391 77.8547 
L 114.386641 77.8547 
L 114.386641 8.1722 
L 71.040391 8.1722 
L 71.040391 77.8547 
z
" style="fill: none"/>
    </g>
    <path d="M 74.648149 62.447244 
L 84.259141 62.447244 
L 96.866899 62.761978 
L 96.866899 62.447244 
L 104.741899 62.447244 
L 104.741899 62.880148 
L 95.198796 62.880148 
L 82.523149 62.565414 
L 82.523149 62.880148 
L 74.648149 62.880148 
L 74.648149 62.447244 
z
" style="fill: #e3dcac"/>
   </g>
   <g id="text_20">
    <g id="patch_21">
     <path d="M 71.040391 76.8825 
L 114.386641 76.8825 
L 114.386641 7.2 
L 71.040391 7.2 
L 71.040391 76.8825 
z
" style="fill: none"/>
    </g>
    <path d="M 73.649227 61.626883 
L 84.31733 61.626883 
L 89.709572 61.750283 
L 95.072718 61.626883 
L 105.799011 61.626883 
L 105.799011 61.908228 
L 98.108279 61.908228 
L 98.108279 61.682874 
L 93.31733 61.805868 
L 86.198796 61.805868 
L 81.349658 61.682874 
L 81.349658 61.908228 
L 73.649227 61.908228 
L 73.649227 61.626883 
z
" style="fill: #e2d9ab"/>
   </g>
   <g id="text_21">
    <!-- SCH23-y2009-s002 -->
    <g transform="translate(7.2 48.678673) scale(0.17 -0.17)">
     <defs>
      <path id="DejaVuSans-53" d="M 3425 4513 
L 3425 3897 
Q 3066 4069 2747 4153 
Q 2428 4238 2131 4238 
Q 1616 4238 1336 4038 
Q 1056 3838 1056 3469 
Q 1056 3159 1242 3001 
Q 1428 2844 1947 2747 
L 2328 2669 
Q 3034 2534 3370 2195 
Q 3706 1856 3706 1288 
Q 3706 609 3251 259 
Q 2797 -91 1919 -91 
Q 1588 -91 1214 -16 
Q 841 59 441 206 
L 441 856 
Q 825 641 1194 531 
Q 1563 422 1919 422 
Q 2459 422 2753 634 
Q 3047 847 3047 1241 
Q 3047 1584 2836 1778 
Q 2625 1972 2144 2069 
L 1759 2144 
Q 1053 2284 737 2584 
Q 422 2884 422 3419 
Q 422 4038 858 4394 
Q 1294 4750 2059 4750 
Q 2388 4750 2728 4690 
Q 3069 4631 3425 4513 
z
" transform="scale(0.015625)"/>
      <path id="DejaVuSans-43" d="M 4122 4306 
L 4122 3641 
Q 3803 3938 3442 4084 
Q 3081 4231 2675 4231 
Q 1875 4231 1450 3742 
Q 1025 3253 1025 2328 
Q 1025 1406 1450 917 
Q 1875 428 2675 428 
Q 3081 428 3442 575 
Q 3803 722 4122 1019 
L 4122 359 
Q 3791 134 3420 21 
Q 3050 -91 2638 -91 
Q 1578 -91 968 557 
Q 359 1206 359 2328 
Q 359 3453 968 4101 
Q 1578 4750 2638 4750 
Q 3056 4750 3426 4639 
Q 3797 4528 4122 4306 
z
" transform="scale(0.015625)"/>
      <path id="DejaVuSans-48" d="M 628 4666 
L 1259 4666 
L 1259 2753 
L 3553 2753 
L 3553 4666 
L 4184 4666 
L 4184 0 
L 3553 0 
L 3553 2222 
L 1259 2222 
L 1259 0 
L 628 0 
L 628 4666 
z
" transform="scale(0.015625)"/>
      <path id="DejaVuSans-32" d="M 1228 531 
L 3431 531 
L 3431 0 
L 469 0 
L 469 531 
Q 828 903 1448 1529 
Q 2069 2156 2228 2338 
Q 2531 2678 2651 2914 
Q 2772 3150 2772 3378 
Q 2772 3750 2511 3984 
Q 2250 4219 1831 4219 
Q 1534 4219 1204 4116 
Q 875 4013 500 3803 
L 500 4441 
Q 881 4594 1212 4672 
Q 1544 4750 1819 4750 
Q 2544 4750 2975 4387 
Q 3406 4025 3406 3419 
Q 3406 3131 3298 2873 
Q 3191 2616 2906 2266 
Q 2828 2175 2409 1742 
Q 1991 1309 1228 531 
z
" transform="scale(0.015625)"/>
      <path id="DejaVuSans-33" d="M 2597 2516 
Q 3050 2419 3304 2112 
Q 3559 1806 3559 1356 
Q 3559 666 3084 287 
Q 2609 -91 1734 -91 
Q 1441 -91 1130 -33 
Q 819 25 488 141 
L 488 750 
Q 750 597 1062 519 
Q 1375 441 1716 441 
Q 2309 441 2620 675 
Q 2931 909 2931 1356 
Q 2931 1769 2642 2001 
Q 2353 2234 1838 2234 
L 1294 2234 
L 1294 2753 
L 1863 2753 
Q 2328 2753 2575 2939 
Q 2822 3125 2822 3475 
Q 2822 3834 2567 4026 
Q 2313 4219 1838 4219 
Q 1578 4219 1281 4162 
Q 984 4106 628 3988 
L 628 4550 
Q 988 4650 1302 4700 
Q 1616 4750 1894 4750 
Q 2613 4750 3031 4423 
Q 3450 4097 3450 3541 
Q 3450 3153 3228 2886 
Q 3006 2619 2597 2516 
z
" transform="scale(0.015625)"/>
      <path id="DejaVuSans-2d" d="M 313 2009 
L 1997 2009 
L 1997 1497 
L 313 1497 
L 313 2009 
z
" transform="scale(0.015625)"/>
      <path id="DejaVuSans-79" d="M 2059 -325 
Q 1816 -950 1584 -1140 
Q 1353 -1331 966 -1331 
L 506 -1331 
L 506 -850 
L 844 -850 
Q 1081 -850 1212 -737 
Q 1344 -625 1503 -206 
L 1606 56 
L 191 3500 
L 800 3500 
L 1894 763 
L 2988 3500 
L 3597 3500 
L 2059 -325 
z
" transform="scale(0.015625)"/>
      <path id="DejaVuSans-39" d="M 703 97 
L 703 672 
Q 941 559 1184 500 
Q 1428 441 1663 441 
Q 2288 441 2617 861 
Q 2947 1281 2994 2138 
Q 2813 1869 2534 1725 
Q 2256 1581 1919 1581 
Q 1219 1581 811 2004 
Q 403 2428 403 3163 
Q 403 3881 828 4315 
Q 1253 4750 1959 4750 
Q 2769 4750 3195 4129 
Q 3622 3509 3622 2328 
Q 3622 1225 3098 567 
Q 2575 -91 1691 -91 
Q 1453 -91 1209 -44 
Q 966 3 703 97 
z
M 1959 2075 
Q 2384 2075 2632 2365 
Q 2881 2656 2881 3163 
Q 2881 3666 2632 3958 
Q 2384 4250 1959 4250 
Q 1534 4250 1286 3958 
Q 1038 3666 1038 3163 
Q 1038 2656 1286 2365 
Q 1534 2075 1959 2075 
z
" transform="scale(0.015625)"/>
      <path id="DejaVuSans-73" d="M 2834 3397 
L 2834 2853 
Q 2591 2978 2328 3040 
Q 2066 3103 1784 3103 
Q 1356 3103 1142 2972 
Q 928 2841 928 2578 
Q 928 2378 1081 2264 
Q 1234 2150 1697 2047 
L 1894 2003 
Q 2506 1872 2764 1633 
Q 3022 1394 3022 966 
Q 3022 478 2636 193 
Q 2250 -91 1575 -91 
Q 1294 -91 989 -36 
Q 684 19 347 128 
L 347 722 
Q 666 556 975 473 
Q 1284 391 1588 391 
Q 1994 391 2212 530 
Q 2431 669 2431 922 
Q 2431 1156 2273 1281 
Q 2116 1406 1581 1522 
L 1381 1569 
Q 847 1681 609 1914 
Q 372 2147 372 2553 
Q 372 3047 722 3315 
Q 1072 3584 1716 3584 
Q 2034 3584 2315 3537 
Q 2597 3491 2834 3397 
z
" transform="scale(0.015625)"/>
     </defs>
     <use xlink:href="#DejaVuSans-53"/>
     <use xlink:href="#DejaVuSans-43" x="63.476562"/>
     <use xlink:href="#DejaVuSans-48" x="133.300781"/>
     <use xlink:href="#DejaVuSans-32" x="208.496094"/>
     <use xlink:href="#DejaVuSans-33" x="272.119141"/>
     <use xlink:href="#DejaVuSans-2d" x="335.742188"/>
     <use xlink:href="#DejaVuSans-79" x="370.076172"/>
     <use xlink:href="#DejaVuSans-32" x="429.255859"/>
     <use xlink:href="#DejaVuSans-30" x="492.878906"/>
     <use xlink:href="#DejaVuSans-30" x="556.501953"/>
     <use xlink:href="#DejaVuSans-39" x="620.125"/>
     <use xlink:href="#DejaVuSans-2d" x="683.748047"/>
     <use xlink:href="#DejaVuSans-73" x="719.832031"/>
     <use xlink:href="#DejaVuSans-30" x="771.931641"/>
     <use xlink:href="#DejaVuSans-30" x="835.554688"/>
     <use xlink:href="#DejaVuSans-32" x="899.177734"/>
    </g>
   </g>
   <g id="line2d_5">
    <path d="M 63.840391 61.276914 
L 114.240391 61.276914 
" clip-path="url(#p2e528d614d)" style="fill: none; stroke: #000000; stroke-linecap: square"/>
   </g>
  </g>
  <g id="axes_2">
   <g id="patch_22">
    <path d="M 63.840391 391.452867 
L 114.240391 391.452867 
L 114.240391 246.291576 
L 63.840391 246.291576 
z
" style="fill: #ffffff"/>
   </g>
   <g id="matplotlib.axis_3">
    <g id="xtick_2">
     <g id="line2d_6">
      <g>
       <use xlink:href="#m3e56d95495" x="89.040391" y="391.452867" style="stroke: #000000"/>
      </g>
     </g>
    </g>
   </g>
   <g id="matplotlib.axis_4">
    <g id="ytick_4">
     <g id="line2d_7">
      <g>
       <use xlink:href="#mde11a7daab" x="63.840391" y="346.91307" style="stroke: #000000"/>
      </g>
     </g>
     <g id="text_22">
      <!-- −8 -->
      <g transform="translate(37.649766 351.472133) scale(0.12 -0.12)">
       <use xlink:href="#DejaVuSans-2212"/>
       <use xlink:href="#DejaVuSans-38" x="83.789062"/>
      </g>
     </g>
    </g>
    <g id="ytick_5">
     <g id="line2d_8">
      <g>
       <use xlink:href="#mde11a7daab" x="63.840391" y="299.901444" style="stroke: #000000"/>
      </g>
     </g>
     <g id="text_23">
      <!-- −4 -->
      <g transform="translate(37.649766 304.460506) scale(0.12 -0.12)">
       <use xlink:href="#DejaVuSans-2212"/>
       <use xlink:href="#DejaVuSans-34" x="83.789062"/>
      </g>
     </g>
    </g>
    <g id="ytick_6">
     <g id="line2d_9">
      <g>
       <use xlink:href="#mde11a7daab" x="63.840391" y="252.889817" style="stroke: #000000"/>
      </g>
     </g>
     <g id="text_24">
      <!-- 0 -->
      <g transform="translate(47.705391 257.448879) scale(0.12 -0.12)">
       <use xlink:href="#DejaVuSans-30"/>
      </g>
     </g>
    </g>
   </g>
   <g id="patch_23">
    <path d="M 63.840391 391.452867 
L 63.840391 246.291576 
" style="fill: none; stroke: #000000; stroke-width: 0.8; stroke-linejoin: miter; stroke-linecap: square"/>
   </g>
   <g id="patch_24">
    <path d="M 63.840391 391.452867 
L 114.240391 391.452867 
" style="fill: none; stroke: #000000; stroke-width: 0.8; stroke-linejoin: miter; stroke-linecap: square"/>
   </g>
   <g id="text_25">
    <g id="patch_25">
     <path d="M 71.040391 399.828376 
L 114.386641 399.828376 
L 114.386641 330.145876 
L 71.040391 330.145876 
L 71.040391 399.828376 
z
" style="fill: none"/>
    </g>
    <path d="M 89.709572 383.058153 
L 97.681554 374.055803 
L 106.681554 374.055803 
L 95.926166 384.834641 
L 83.53177 384.834641 
L 72.766684 374.055803 
L 81.766684 374.055803 
L 89.709572 383.058153 
z
" style="fill: #e2d9ab"/>
   </g>
   <g id="text_26">
    <g id="patch_26">
     <path d="M 71.040391 386.641615 
L 114.386641 386.641615 
L 114.386641 316.959115 
L 71.040391 316.959115 
L 71.040391 386.641615 
z
" style="fill: none"/>
    </g>
    <path d="M 77.858279 371.649014 
L 77.858279 361.481796 
L 86.800089 361.481796 
L 86.800089 369.874882 
L 105.925089 369.874882 
L 105.925089 371.649014 
L 77.858279 371.649014 
z
" style="fill: #e4deae"/>
   </g>
   <g id="text_27">
    <g id="patch_27">
     <path d="M 71.040391 374.113017 
L 114.386641 374.113017 
L 114.386641 304.430517 
L 71.040391 304.430517 
L 71.040391 374.113017 
z
" style="fill: none"/>
    </g>
    <path d="M 76.258063 350.853837 
L 76.258063 349.106387 
L 103.199873 349.106387 
L 103.199873 350.853837 
L 94.199873 350.853837 
L 94.199873 357.373249 
L 103.199873 357.373249 
L 103.199873 359.120699 
L 76.258063 359.120699 
L 76.258063 357.373249 
L 85.258063 357.373249 
L 85.258063 350.853837 
L 76.258063 350.853837 
z
" style="fill: #e1d7aa"/>
   </g>
   <g id="text_28">
    <g id="patch_28">
     <path d="M 71.040391 361.748959 
L 114.386641 361.748959 
L 114.386641 292.066459 
L 71.040391 292.066459 
L 71.040391 361.748959 
z
" style="fill: none"/>
    </g>
    <path d="M 94.199873 346.758346 
L 85.258063 346.758346 
L 85.258063 339.233769 
L 73.765606 339.233769 
L 73.765606 337.66365 
L 105.682632 337.66365 
L 105.682632 339.233769 
L 94.199873 339.233769 
L 94.199873 346.758346 
z
" style="fill: #e2daab"/>
   </g>
   <g id="text_29">
    <g id="patch_29">
     <path d="M 71.040391 350.374496 
L 114.386641 350.374496 
L 114.386641 280.691996 
L 71.040391 280.691996 
L 71.040391 350.374496 
z
" style="fill: none"/>
    </g>
    <path d="M 104.315175 335.385784 
L 76.131985 335.385784 
L 76.131985 327.316646 
L 104.315175 327.316646 
L 104.315175 328.724673 
L 85.073796 328.724673 
L 85.073796 330.460186 
L 102.501598 330.460186 
L 102.501598 331.868212 
L 85.073796 331.868212 
L 85.073796 333.977758 
L 104.315175 333.977758 
L 104.315175 335.385784 
z
" style="fill: #e4dfae"/>
   </g>
   <g id="text_30">
    <g id="patch_30">
     <path d="M 71.040391 340.103631 
L 114.386641 340.103631 
L 114.386641 270.421131 
L 71.040391 270.421131 
L 71.040391 340.103631 
z
" style="fill: none"/>
    </g>
    <path d="M 84.889529 319.142054 
L 84.889529 321.245765 
L 88.555477 321.245765 
Q 92.948796 321.245765 94.72358 321.011035 
Q 96.498365 320.774829 96.498365 320.193171 
Q 96.498365 319.611514 94.72358 319.376784 
Q 92.948796 319.142054 88.555477 319.142054 
L 84.889529 319.142054 
z
M 75.947718 317.950689 
L 88.225735 317.950689 
Q 97.59427 317.950689 101.696641 318.4792 
Q 105.799011 319.007712 105.799011 320.193171 
Q 105.799011 321.378631 101.696641 321.907143 
Q 97.59427 322.435654 88.225735 322.435654 
L 84.889529 322.435654 
L 84.889529 325.116594 
L 75.947718 325.116594 
L 75.947718 317.950689 
z
" style="fill: #e3dcad"/>
   </g>
   <g id="text_31">
    <g id="patch_31">
     <path d="M 71.040391 330.804731 
L 114.386641 330.804731 
L 114.386641 261.122231 
L 71.040391 261.122231 
L 71.040391 330.804731 
z
" style="fill: none"/>
    </g>
    <path d="M 90.921856 314.847906 
Q 90.495132 314.860956 90.204184 314.865305 
Q 89.922934 314.869655 89.651382 314.869655 
Q 81.863666 314.869655 77.84858 314.102625 
Q 73.833494 313.334145 73.833494 311.834883 
Q 73.833494 310.329822 77.84858 309.559891 
Q 81.863666 308.789961 89.709572 308.789961 
Q 97.59427 308.789961 101.609356 309.559891 
Q 105.624442 310.329822 105.624442 311.834883 
Q 105.624442 312.867257 103.713882 313.563239 
Q 101.803322 314.259221 98.166468 314.557913 
L 103.801166 315.274195 
L 97.681554 315.86288 
L 90.921856 314.847906 
z
M 89.709572 309.831034 
Q 86.28608 309.831034 84.705261 310.305172 
Q 83.134141 310.77931 83.134141 311.834883 
Q 83.134141 312.886106 84.705261 313.360244 
Q 86.28608 313.832932 89.709572 313.832932 
Q 93.162158 313.832932 94.733279 313.360244 
Q 96.314098 312.886106 96.314098 311.834883 
Q 96.314098 310.77931 94.733279 310.305172 
Q 93.162158 309.831034 89.709572 309.831034 
z
" style="fill: #e1d8aa"/>
   </g>
   <g id="text_32">
    <g id="patch_32">
     <path d="M 71.040391 321.64334 
L 114.386641 321.64334 
L 114.386641 251.96084 
L 71.040391 251.96084 
L 71.040391 321.64334 
z
" style="fill: none"/>
    </g>
    <path d="M 75.191253 299.794588 
L 84.133063 299.794588 
L 84.133063 302.410001 
L 95.315175 302.410001 
L 95.315175 299.794588 
L 104.256985 299.794588 
L 104.256985 306.656866 
L 95.315175 306.656866 
L 95.315175 303.603195 
L 84.133063 303.603195 
L 84.133063 306.656866 
L 75.191253 306.656866 
L 75.191253 299.794588 
z
" style="fill: #e5e1af"/>
   </g>
   <g id="text_33">
    <g id="patch_33">
     <path d="M 71.040391 312.671171 
L 114.386641 312.671171 
L 114.386641 242.988671 
L 71.040391 242.988671 
L 71.040391 312.671171 
z
" style="fill: none"/>
    </g>
    <path d="M 84.133063 292.124059 
L 84.133063 296.477333 
L 86.557632 296.477333 
Q 91.833494 296.477333 94.073796 295.980932 
Q 96.314098 295.483136 96.314098 294.293724 
Q 96.314098 293.112679 94.073796 292.619066 
Q 91.833494 292.124059 86.557632 292.124059 
L 84.133063 292.124059 
z
M 75.191253 290.91652 
L 84.773149 290.91652 
Q 95.858279 290.91652 100.736511 291.708532 
Q 105.624442 292.499149 105.624442 294.293724 
Q 105.624442 296.093877 100.736511 296.890071 
Q 95.858279 297.684872 84.773149 297.684872 
L 75.191253 297.684872 
L 75.191253 290.91652 
z
" style="fill: #e2dbac"/>
   </g>
   <g id="text_34">
    <g id="patch_34">
     <path d="M 71.040391 303.800077 
L 114.386641 303.800077 
L 114.386641 234.117577 
L 71.040391 234.117577 
L 71.040391 303.800077 
z
" style="fill: none"/>
    </g>
    <path d="M 89.709572 284.026428 
L 85.50052 286.424573 
L 93.957416 286.424573 
L 89.709572 284.026428 
z
M 84.259141 282.966866 
L 95.198796 282.966866 
L 107.408925 288.826327 
L 98.467115 288.826327 
L 95.68371 287.375894 
L 83.706339 287.375894 
L 80.981123 288.826327 
L 72.039313 288.826327 
L 84.259141 282.966866 
z
" style="fill: #e3dcad"/>
   </g>
   <g id="text_35">
    <g id="patch_35">
     <path d="M 71.040391 295.930331 
L 114.386641 295.930331 
L 114.386641 226.247831 
L 71.040391 226.247831 
L 71.040391 295.930331 
z
" style="fill: none"/>
    </g>
    <path d="M 86.499442 279.276906 
Q 79.739744 279.069095 77.34427 278.840972 
Q 74.948796 278.612848 74.948796 278.226914 
Q 74.948796 277.731605 78.886296 277.448795 
Q 82.833494 277.165203 89.709572 277.165203 
Q 92.832416 277.165203 95.955261 277.223015 
Q 99.078106 277.280046 102.133063 277.391764 
L 102.133063 278.094884 
Q 99.252675 277.931604 96.285003 277.846448 
Q 93.31733 277.760511 90.407848 277.760511 
Q 87.168623 277.760511 85.432632 277.865979 
Q 83.706339 277.970666 83.706339 278.165977 
Q 83.706339 278.317538 84.967115 278.416756 
Q 86.227891 278.515193 90.22358 278.634723 
L 94.073796 278.75191 
Q 99.533925 278.912846 102.103968 279.17925 
Q 104.68371 279.445655 104.68371 279.850339 
Q 104.68371 280.402679 100.62983 280.674552 
Q 96.585649 280.946425 88.410003 280.946425 
Q 85.044701 280.946425 81.660003 280.882363 
Q 78.285003 280.817519 75.133063 280.690177 
L 75.133063 279.945651 
Q 78.711727 280.151118 82.057632 280.251117 
Q 85.403537 280.351117 88.681554 280.351117 
Q 91.978968 280.351117 93.792546 280.230805 
Q 95.615822 280.109712 95.615822 279.891745 
Q 95.615822 279.728465 94.403537 279.605028 
Q 93.191253 279.481592 90.892761 279.41128 
L 86.499442 279.276906 
z
" style="fill: #e4dfae"/>
   </g>
   <g id="text_36">
    <g id="patch_36">
     <path d="M 71.040391 290.261904 
L 114.386641 290.261904 
L 114.386641 220.579404 
L 71.040391 220.579404 
L 71.040391 290.261904 
z
" style="fill: none"/>
    </g>
    <path d="M 71.282848 271.78987 
L 80.922934 271.78987 
L 89.709572 273.192637 
L 98.525304 271.78987 
L 108.165391 271.78987 
L 94.199873 273.90553 
L 94.199873 275.28168 
L 85.258063 275.28168 
L 85.258063 273.90553 
L 71.282848 271.78987 
z
" style="fill: #e3ddad"/>
   </g>
   <g id="text_37">
    <g id="patch_37">
     <path d="M 71.040391 284.916682 
L 114.386641 284.916682 
L 114.386641 215.234182 
L 71.040391 215.234182 
L 71.040391 284.916682 
z
" style="fill: none"/>
    </g>
    <path d="M 97.468192 269.270487 
L 97.468192 268.632453 
L 91.34858 268.632453 
L 91.34858 268.076861 
L 105.285003 268.076861 
L 105.285003 269.60886 
Q 102.71496 269.772312 99.601813 269.856905 
Q 96.498365 269.940781 92.948796 269.940781 
Q 84.162158 269.940781 79.37121 269.489139 
Q 74.58996 269.037497 74.58996 268.206619 
Q 74.58996 267.36212 79.419701 266.916213 
Q 84.259141 266.470306 93.37552 266.470306 
Q 96.100735 266.470306 98.738666 266.527657 
Q 101.376598 266.585008 103.684787 266.692542 
L 103.684787 267.424489 
Q 101.803322 267.245266 99.359356 267.154938 
Q 96.925089 267.063892 94.015606 267.063892 
Q 88.924011 267.063892 86.40246 267.347782 
Q 83.890606 267.630954 83.890606 268.206619 
Q 83.890606 268.764361 86.315175 269.056136 
Q 88.739744 269.347194 93.37552 269.347194 
Q 94.772072 269.347194 95.800089 269.328555 
Q 96.828106 269.309199 97.468192 269.270487 
z
" style="fill: #e3dcac"/>
   </g>
   <g id="text_38">
    <g id="patch_38">
     <path d="M 71.040391 279.584388 
L 114.386641 279.584388 
L 114.386641 209.901888 
L 71.040391 209.901888 
L 71.040391 279.584388 
z
" style="fill: none"/>
    </g>
    <path d="M 73.649227 262.029299 
L 84.31733 262.029299 
L 89.709572 263.159398 
L 95.072718 262.029299 
L 105.799011 262.029299 
L 105.799011 264.605861 
L 98.108279 264.605861 
L 98.108279 262.542063 
L 93.31733 263.668447 
L 86.198796 263.668447 
L 81.349658 262.542063 
L 81.349658 264.605861 
L 73.649227 264.605861 
L 73.649227 262.029299 
z
" style="fill: #e2d9ab"/>
   </g>
   <g id="text_39">
    <g id="patch_39">
     <path d="M 71.040391 275.22406 
L 114.386641 275.22406 
L 114.386641 205.54156 
L 71.040391 205.54156 
L 71.040391 275.22406 
z
" style="fill: none"/>
    </g>
    <path d="M 104.741899 258.66978 
L 85.50052 258.66978 
L 85.50052 259.080655 
L 103.015606 259.080655 
L 103.015606 259.413999 
L 85.50052 259.413999 
L 85.50052 260.246768 
L 76.55871 260.246768 
L 76.55871 258.336436 
L 104.741899 258.336436 
L 104.741899 258.66978 
z
" style="fill: #e2dbac"/>
   </g>
   <g id="text_40">
    <g id="patch_40">
     <path d="M 71.040391 271.580659 
L 114.386641 271.580659 
L 114.386641 201.898159 
L 71.040391 201.898159 
L 71.040391 271.580659 
z
" style="fill: none"/>
    </g>
    <path d="M 95.499442 255.936159 
Q 96.828106 255.944324 97.81733 255.975529 
Q 98.806554 256.006442 100.222503 256.094806 
L 108.407848 256.604284 
L 98.593192 256.604284 
L 93.133063 256.247037 
Q 92.890606 256.231289 92.502675 256.205042 
Q 90.107201 256.044645 86.858279 256.044645 
L 84.016684 256.044645 
L 84.016684 256.604284 
L 75.074873 256.604284 
L 75.074873 255.18871 
L 87.983279 255.18871 
Q 96.711727 255.18871 100.513451 255.285531 
Q 104.315175 255.382061 104.315175 255.600784 
Q 104.315175 255.746599 102.045779 255.832922 
Q 99.776382 255.918953 95.499442 255.936159 
z
M 84.016684 255.424056 
L 84.016684 255.809591 
L 88.225735 255.809591 
Q 91.891684 255.809591 93.482201 255.764972 
Q 95.072718 255.720061 95.072718 255.61624 
Q 95.072718 255.513295 93.491899 255.468675 
Q 91.920779 255.424056 88.225735 255.424056 
L 84.016684 255.424056 
z
" style="fill: #e0d4a8"/>
   </g>
   <g id="text_41">
    <g id="patch_41">
     <path d="M 71.040391 268.469664 
L 114.386641 268.469664 
L 114.386641 198.787164 
L 71.040391 198.787164 
L 71.040391 268.469664 
z
" style="fill: none"/>
    </g>
    <path d="M 74.648149 253.225529 
L 84.259141 253.225529 
L 96.866899 253.421743 
L 96.866899 253.225529 
L 104.741899 253.225529 
L 104.741899 253.495414 
L 95.198796 253.495414 
L 82.523149 253.2992 
L 82.523149 253.495414 
L 74.648149 253.495414 
L 74.648149 253.225529 
z
" style="fill: #e3dcac"/>
   </g>
   <g id="text_42">
    <!-- SCH23-y2009-s007 -->
    <g transform="translate(7.2 240.291576) scale(0.17 -0.17)">
     <defs>
      <path id="DejaVuSans-37" d="M 525 4666 
L 3525 4666 
L 3525 4397 
L 1831 0 
L 1172 0 
L 2766 4134 
L 525 4134 
L 525 4666 
z
" transform="scale(0.015625)"/>
     </defs>
     <use xlink:href="#DejaVuSans-53"/>
     <use xlink:href="#DejaVuSans-43" x="63.476562"/>
     <use xlink:href="#DejaVuSans-48" x="133.300781"/>
     <use xlink:href="#DejaVuSans-32" x="208.496094"/>
     <use xlink:href="#DejaVuSans-33" x="272.119141"/>
     <use xlink:href="#DejaVuSans-2d" x="335.742188"/>
     <use xlink:href="#DejaVuSans-79" x="370.076172"/>
     <use xlink:href="#DejaVuSans-32" x="429.255859"/>
     <use xlink:href="#DejaVuSans-30" x="492.878906"/>
     <use xlink:href="#DejaVuSans-30" x="556.501953"/>
     <use xlink:href="#DejaVuSans-39" x="620.125"/>
     <use xlink:href="#DejaVuSans-2d" x="683.748047"/>
     <use xlink:href="#DejaVuSans-73" x="719.832031"/>
     <use xlink:href="#DejaVuSans-30" x="771.931641"/>
     <use xlink:href="#DejaVuSans-30" x="835.554688"/>
     <use xlink:href="#DejaVuSans-37" x="899.177734"/>
    </g>
   </g>
   <g id="line2d_10">
    <path d="M 63.840391 252.889817 
L 114.240391 252.889817 
" clip-path="url(#pe54836880f)" style="fill: none; stroke: #000000; stroke-linecap: square"/>
   </g>
  </g>
  <g id="axes_3">
   <g id="patch_42">
    <path d="M 63.840391 583.06577 
L 114.240391 583.06577 
L 114.240391 437.90448 
L 63.840391 437.90448 
z
" style="fill: #ffffff"/>
   </g>
   <g id="matplotlib.axis_5">
    <g id="xtick_3">
     <g id="line2d_11">
      <g>
       <use xlink:href="#m3e56d95495" x="89.040391" y="583.06577" style="stroke: #000000"/>
      </g>
     </g>
    </g>
   </g>
   <g id="matplotlib.axis_6">
    <g id="ytick_7">
     <g id="line2d_12">
      <g>
       <use xlink:href="#mde11a7daab" x="63.840391" y="538.525974" style="stroke: #000000"/>
      </g>
     </g>
     <g id="text_43">
      <!-- −8 -->
      <g transform="translate(37.649766 543.085036) scale(0.12 -0.12)">
       <use xlink:href="#DejaVuSans-2212"/>
       <use xlink:href="#DejaVuSans-38" x="83.789062"/>
      </g>
     </g>
    </g>
    <g id="ytick_8">
     <g id="line2d_13">
      <g>
       <use xlink:href="#mde11a7daab" x="63.840391" y="491.514347" style="stroke: #000000"/>
      </g>
     </g>
     <g id="text_44">
      <!-- −4 -->
      <g transform="translate(37.649766 496.073409) scale(0.12 -0.12)">
       <use xlink:href="#DejaVuSans-2212"/>
       <use xlink:href="#DejaVuSans-34" x="83.789062"/>
      </g>
     </g>
    </g>
    <g id="ytick_9">
     <g id="line2d_14">
      <g>
       <use xlink:href="#mde11a7daab" x="63.840391" y="444.50272" style="stroke: #000000"/>
      </g>
     </g>
     <g id="text_45">
      <!-- 0 -->
      <g transform="translate(47.705391 449.061783) scale(0.12 -0.12)">
       <use xlink:href="#DejaVuSans-30"/>
      </g>
     </g>
    </g>
   </g>
   <g id="patch_43">
    <path d="M 63.840391 583.06577 
L 63.840391 437.90448 
" style="fill: none; stroke: #000000; stroke-width: 0.8; stroke-linejoin: miter; stroke-linecap: square"/>
   </g>
   <g id="patch_44">
    <path d="M 63.840391 583.06577 
L 114.240391 583.06577 
" style="fill: none; stroke: #000000; stroke-width: 0.8; stroke-linejoin: miter; stroke-linecap: square"/>
   </g>
   <g id="text_46">
    <g id="patch_45">
     <path d="M 71.040391 575.470137 
L 114.386641 575.470137 
L 114.386641 505.787637 
L 71.040391 505.787637 
L 71.040391 575.470137 
z
" style="fill: none"/>
    </g>
    <path d="M 89.709572 551.687815 
L 85.50052 556.08879 
L 93.957416 556.08879 
L 89.709572 551.687815 
z
M 84.259141 549.743352 
L 95.198796 549.743352 
L 107.408925 560.496387 
L 98.467115 560.496387 
L 95.68371 557.834614 
L 83.706339 557.834614 
L 80.981123 560.496387 
L 72.039313 560.496387 
L 84.259141 549.743352 
z
" style="fill: #e3dcad"/>
   </g>
   <g id="text_47">
    <g id="patch_46">
     <path d="M 71.040391 562.353893 
L 114.386641 562.353893 
L 114.386641 492.671393 
L 71.040391 492.671393 
L 71.040391 562.353893 
z
" style="fill: none"/>
    </g>
    <path d="M 84.889529 539.039568 
L 84.889529 541.969874 
L 88.555477 541.969874 
Q 92.948796 541.969874 94.72358 541.642913 
Q 96.498365 541.313897 96.498365 540.503693 
Q 96.498365 539.693489 94.72358 539.366528 
Q 92.948796 539.039568 88.555477 539.039568 
L 84.889529 539.039568 
z
M 75.947718 537.38009 
L 88.225735 537.38009 
Q 97.59427 537.38009 101.696641 538.116265 
Q 105.799011 538.85244 105.799011 540.503693 
Q 105.799011 542.154946 101.696641 542.891121 
Q 97.59427 543.627296 88.225735 543.627296 
L 84.889529 543.627296 
L 84.889529 547.361636 
L 75.947718 547.361636 
L 75.947718 537.38009 
z
" style="fill: #e3dcad"/>
   </g>
   <g id="text_48">
    <g id="patch_47">
     <path d="M 71.040391 550.025094 
L 114.386641 550.025094 
L 114.386641 480.342594 
L 71.040391 480.342594 
L 71.040391 550.025094 
z
" style="fill: none"/>
    </g>
    <path d="M 89.709572 533.609102 
L 97.681554 526.381845 
L 106.681554 526.381845 
L 95.926166 535.0353 
L 83.53177 535.0353 
L 72.766684 526.381845 
L 81.766684 526.381845 
L 89.709572 533.609102 
z
" style="fill: #e2d9ab"/>
   </g>
   <g id="text_49">
    <g id="patch_48">
     <path d="M 71.040391 539.125449 
L 114.386641 539.125449 
L 114.386641 469.442949 
L 71.040391 469.442949 
L 71.040391 539.125449 
z
" style="fill: none"/>
    </g>
    <path d="M 94.199873 524.137462 
L 85.258063 524.137462 
L 85.258063 517.784887 
L 73.765606 517.784887 
L 73.765606 516.459325 
L 105.682632 516.459325 
L 105.682632 517.784887 
L 94.199873 517.784887 
L 94.199873 524.137462 
z
" style="fill: #e2daab"/>
   </g>
   <g id="text_50">
    <g id="patch_49">
     <path d="M 71.040391 529.275337 
L 114.386641 529.275337 
L 114.386641 459.592837 
L 71.040391 459.592837 
L 71.040391 529.275337 
z
" style="fill: none"/>
    </g>
    <path d="M 71.282848 506.62125 
L 80.922934 506.62125 
L 89.709572 509.700966 
L 98.525304 506.62125 
L 108.165391 506.62125 
L 94.199873 511.266093 
L 94.199873 514.287373 
L 85.258063 514.287373 
L 85.258063 511.266093 
L 71.282848 506.62125 
z
" style="fill: #e3ddad"/>
   </g>
   <g id="text_51">
    <g id="patch_50">
     <path d="M 71.040391 519.438155 
L 114.386641 519.438155 
L 114.386641 449.755655 
L 71.040391 449.755655 
L 71.040391 519.438155 
z
" style="fill: none"/>
    </g>
    <path d="M 97.468192 503.274028 
L 97.468192 502.144567 
L 91.34858 502.144567 
L 91.34858 501.161047 
L 105.285003 501.161047 
L 105.285003 503.873024 
Q 102.71496 504.162369 99.601813 504.312118 
Q 96.498365 504.460597 92.948796 504.460597 
Q 84.162158 504.460597 79.37121 503.661091 
Q 74.58996 502.861585 74.58996 501.390747 
Q 74.58996 499.895797 79.419701 499.106443 
Q 84.259141 498.317089 93.37552 498.317089 
Q 96.100735 498.317089 98.738666 498.418613 
Q 101.376598 498.520138 103.684787 498.710497 
L 103.684787 500.006205 
Q 101.803322 499.68894 99.359356 499.529039 
Q 96.925089 499.367869 94.015606 499.367869 
Q 88.924011 499.367869 86.40246 499.870415 
Q 83.890606 500.371693 83.890606 501.390747 
Q 83.890606 502.378074 86.315175 502.89458 
Q 88.739744 503.409818 93.37552 503.409818 
Q 94.772072 503.409818 95.800089 503.376822 
Q 96.828106 503.342558 97.468192 503.274028 
z
" style="fill: #e3dcac"/>
   </g>
   <g id="text_52">
    <g id="patch_51">
     <path d="M 71.040391 511.221698 
L 114.386641 511.221698 
L 114.386641 441.539198 
L 71.040391 441.539198 
L 71.040391 511.221698 
z
" style="fill: none"/>
    </g>
    <path d="M 76.258063 491.172195 
L 76.258063 490.101686 
L 103.199873 490.101686 
L 103.199873 491.172195 
L 94.199873 491.172195 
L 94.199873 495.166064 
L 103.199873 495.166064 
L 103.199873 496.236573 
L 76.258063 496.236573 
L 76.258063 495.166064 
L 85.258063 495.166064 
L 85.258063 491.172195 
L 76.258063 491.172195 
z
" style="fill: #e1d7aa"/>
   </g>
   <g id="text_53">
    <g id="patch_52">
     <path d="M 71.040391 503.032272 
L 114.386641 503.032272 
L 114.386641 433.349772 
L 71.040391 433.349772 
L 71.040391 503.032272 
z
" style="fill: none"/>
    </g>
    <path d="M 86.499442 485.781883 
Q 79.739744 485.500215 77.34427 485.191016 
Q 74.948796 484.881817 74.948796 484.358719 
Q 74.948796 483.687375 78.886296 483.304053 
Q 82.833494 482.919671 89.709572 482.919671 
Q 92.832416 482.919671 95.955261 482.99803 
Q 99.078106 483.07533 102.133063 483.226753 
L 102.133063 484.179765 
Q 99.252675 483.958454 96.285003 483.843034 
Q 93.31733 483.726555 90.407848 483.726555 
Q 87.168623 483.726555 85.432632 483.869506 
Q 83.706339 484.011399 83.706339 484.276125 
Q 83.706339 484.481552 84.967115 484.616032 
Q 86.227891 484.749454 90.22358 484.911466 
L 94.073796 485.070301 
Q 99.533925 485.288435 102.103968 485.64952 
Q 104.68371 486.010606 104.68371 486.559117 
Q 104.68371 487.307761 100.62983 487.676259 
Q 96.585649 488.044756 88.410003 488.044756 
Q 85.044701 488.044756 81.660003 487.957927 
Q 78.285003 487.870038 75.133063 487.697437 
L 75.133063 486.688303 
Q 78.711727 486.966794 82.057632 487.102334 
Q 85.403537 487.237873 88.681554 487.237873 
Q 91.978968 487.237873 93.792546 487.074802 
Q 95.615822 486.910673 95.615822 486.615239 
Q 95.615822 486.393928 94.403537 486.226622 
Q 93.191253 486.059315 90.892761 485.964014 
L 86.499442 485.781883 
z
" style="fill: #e4dfae"/>
   </g>
   <g id="text_54">
    <g id="patch_53">
     <path d="M 71.040391 495.913537 
L 114.386641 495.913537 
L 114.386641 426.231037 
L 71.040391 426.231037 
L 71.040391 495.913537 
z
" style="fill: none"/>
    </g>
    <path d="M 104.315175 480.931338 
L 76.131985 480.931338 
L 76.131985 476.374653 
L 104.315175 476.374653 
L 104.315175 477.169773 
L 85.073796 477.169773 
L 85.073796 478.149826 
L 102.501598 478.149826 
L 102.501598 478.944946 
L 85.073796 478.944946 
L 85.073796 480.136218 
L 104.315175 480.136218 
L 104.315175 480.931338 
z
" style="fill: #e4dfae"/>
   </g>
   <g id="text_55">
    <g id="patch_54">
     <path d="M 71.040391 489.422406 
L 114.386641 489.422406 
L 114.386641 419.739906 
L 71.040391 419.739906 
L 71.040391 489.422406 
z
" style="fill: none"/>
    </g>
    <path d="M 74.648149 469.899935 
L 84.259141 469.899935 
L 96.866899 473.200868 
L 96.866899 469.899935 
L 104.741899 469.899935 
L 104.741899 474.440238 
L 95.198796 474.440238 
L 82.523149 471.139305 
L 82.523149 474.440238 
L 74.648149 474.440238 
L 74.648149 469.899935 
z
" style="fill: #e3dcac"/>
   </g>
   <g id="text_56">
    <g id="patch_55">
     <path d="M 71.040391 482.948905 
L 114.386641 482.948905 
L 114.386641 413.266405 
L 71.040391 413.266405 
L 71.040391 482.948905 
z
" style="fill: none"/>
    </g>
    <path d="M 90.921856 467.363245 
Q 90.495132 467.371368 90.204184 467.374075 
Q 89.922934 467.376783 89.651382 467.376783 
Q 81.863666 467.376783 77.84858 466.899348 
Q 73.833494 466.421012 73.833494 465.487803 
Q 73.833494 464.550985 77.84858 464.071745 
Q 81.863666 463.592506 89.709572 463.592506 
Q 97.59427 463.592506 101.609356 464.071745 
Q 105.624442 464.550985 105.624442 465.487803 
Q 105.624442 466.130399 103.713882 466.56361 
Q 101.803322 466.996821 98.166468 467.182741 
L 103.801166 467.628587 
L 97.681554 467.995011 
L 90.921856 467.363245 
z
M 89.709572 464.240517 
Q 86.28608 464.240517 84.705261 464.535642 
Q 83.134141 464.830767 83.134141 465.487803 
Q 83.134141 466.142132 84.705261 466.437257 
Q 86.28608 466.731479 89.709572 466.731479 
Q 93.162158 466.731479 94.733279 466.437257 
Q 96.314098 466.142132 96.314098 465.487803 
Q 96.314098 464.830767 94.733279 464.535642 
Q 93.162158 464.240517 89.709572 464.240517 
z
" style="fill: #e1d8aa"/>
   </g>
   <g id="text_57">
    <g id="patch_56">
     <path d="M 71.040391 476.646997 
L 114.386641 476.646997 
L 114.386641 406.964497 
L 71.040391 406.964497 
L 71.040391 476.646997 
z
" style="fill: none"/>
    </g>
    <path d="M 75.191253 457.306164 
L 84.133063 457.306164 
L 84.133063 458.967505 
L 95.315175 458.967505 
L 95.315175 457.306164 
L 104.256985 457.306164 
L 104.256985 461.665165 
L 95.315175 461.665165 
L 95.315175 459.725436 
L 84.133063 459.725436 
L 84.133063 461.665165 
L 75.191253 461.665165 
L 75.191253 457.306164 
z
" style="fill: #e5e1af"/>
   </g>
   <g id="text_58">
    <g id="patch_57">
     <path d="M 71.040391 470.368594 
L 114.386641 470.368594 
L 114.386641 400.686094 
L 71.040391 400.686094 
L 71.040391 470.368594 
z
" style="fill: none"/>
    </g>
    <path d="M 84.133063 452.833406 
L 84.133063 454.834109 
L 86.557632 454.834109 
Q 91.833494 454.834109 94.073796 454.60597 
Q 96.314098 454.37719 96.314098 453.830553 
Q 96.314098 453.287761 94.073796 453.060904 
Q 91.833494 452.833406 86.557632 452.833406 
L 84.133063 452.833406 
z
M 75.191253 452.278438 
L 84.773149 452.278438 
Q 95.858279 452.278438 100.736511 452.642435 
Q 105.624442 453.005792 105.624442 453.830553 
Q 105.624442 454.657878 100.736511 455.023798 
Q 95.858279 455.389076 84.773149 455.389076 
L 75.191253 455.389076 
L 75.191253 452.278438 
z
" style="fill: #e2dbac"/>
   </g>
   <g id="text_59">
    <g id="patch_58">
     <path d="M 71.040391 465.433548 
L 114.386641 465.433548 
L 114.386641 395.751048 
L 71.040391 395.751048 
L 71.040391 465.433548 
z
" style="fill: none"/>
    </g>
    <path d="M 77.858279 450.457826 
L 77.858279 449.393883 
L 86.800089 449.393883 
L 86.800089 450.272173 
L 105.925089 450.272173 
L 105.925089 450.457826 
L 77.858279 450.457826 
z
" style="fill: #e4deae"/>
   </g>
   <g id="text_60">
    <g id="patch_59">
     <path d="M 71.040391 463.044183 
L 114.386641 463.044183 
L 114.386641 393.361683 
L 71.040391 393.361683 
L 71.040391 463.044183 
z
" style="fill: none"/>
    </g>
    <path d="M 95.499442 447.576713 
Q 96.828106 447.582723 97.81733 447.605692 
Q 98.806554 447.628446 100.222503 447.693488 
L 108.407848 448.068501 
L 98.593192 448.068501 
L 93.133063 447.805541 
Q 92.890606 447.79395 92.502675 447.77463 
Q 90.107201 447.656567 86.858279 447.656567 
L 84.016684 447.656567 
L 84.016684 448.068501 
L 75.074873 448.068501 
L 75.074873 447.026538 
L 87.983279 447.026538 
Q 96.711727 447.026538 100.513451 447.097805 
Q 104.315175 447.168858 104.315175 447.329853 
Q 104.315175 447.437183 102.045779 447.500723 
Q 99.776382 447.564048 95.499442 447.576713 
z
M 84.016684 447.199769 
L 84.016684 447.48355 
L 88.225735 447.48355 
Q 91.891684 447.48355 93.482201 447.450707 
Q 95.072718 447.417649 95.072718 447.34123 
Q 95.072718 447.265455 93.491899 447.232612 
Q 91.920779 447.199769 88.225735 447.199769 
L 84.016684 447.199769 
z
" style="fill: #e0d4a8"/>
   </g>
   <g id="text_61">
    <g id="patch_60">
     <path d="M 71.040391 460.704179 
L 114.386641 460.704179 
L 114.386641 391.021679 
L 71.040391 391.021679 
L 71.040391 460.704179 
z
" style="fill: none"/>
    </g>
    <path d="M 104.741899 445.365637 
L 85.50052 445.365637 
L 85.50052 445.460468 
L 103.015606 445.460468 
L 103.015606 445.537405 
L 85.50052 445.537405 
L 85.50052 445.729611 
L 76.55871 445.729611 
L 76.55871 445.2887 
L 104.741899 445.2887 
L 104.741899 445.365637 
z
" style="fill: #e2dbac"/>
   </g>
   <g id="text_62">
    <g id="patch_61">
     <path d="M 71.040391 459.713996 
L 114.386641 459.713996 
L 114.386641 390.031496 
L 71.040391 390.031496 
L 71.040391 459.713996 
z
" style="fill: none"/>
    </g>
    <path d="M 73.649227 444.634284 
L 84.31733 444.634284 
L 89.709572 444.680674 
L 95.072718 444.634284 
L 105.799011 444.634284 
L 105.799011 444.74005 
L 98.108279 444.74005 
L 98.108279 444.655333 
L 93.31733 444.70157 
L 86.198796 444.70157 
L 81.349658 444.655333 
L 81.349658 444.74005 
L 73.649227 444.74005 
L 73.649227 444.634284 
z
" style="fill: #e2d9ab"/>
   </g>
   <g id="text_63">
    <!-- SCH23-y2016-s037 -->
    <g transform="translate(7.2 431.90448) scale(0.17 -0.17)">
     <defs>
      <path id="DejaVuSans-31" d="M 794 531 
L 1825 531 
L 1825 4091 
L 703 3866 
L 703 4441 
L 1819 4666 
L 2450 4666 
L 2450 531 
L 3481 531 
L 3481 0 
L 794 0 
L 794 531 
z
" transform="scale(0.015625)"/>
      <path id="DejaVuSans-36" d="M 2113 2584 
Q 1688 2584 1439 2293 
Q 1191 2003 1191 1497 
Q 1191 994 1439 701 
Q 1688 409 2113 409 
Q 2538 409 2786 701 
Q 3034 994 3034 1497 
Q 3034 2003 2786 2293 
Q 2538 2584 2113 2584 
z
M 3366 4563 
L 3366 3988 
Q 3128 4100 2886 4159 
Q 2644 4219 2406 4219 
Q 1781 4219 1451 3797 
Q 1122 3375 1075 2522 
Q 1259 2794 1537 2939 
Q 1816 3084 2150 3084 
Q 2853 3084 3261 2657 
Q 3669 2231 3669 1497 
Q 3669 778 3244 343 
Q 2819 -91 2113 -91 
Q 1303 -91 875 529 
Q 447 1150 447 2328 
Q 447 3434 972 4092 
Q 1497 4750 2381 4750 
Q 2619 4750 2861 4703 
Q 3103 4656 3366 4563 
z
" transform="scale(0.015625)"/>
     </defs>
     <use xlink:href="#DejaVuSans-53"/>
     <use xlink:href="#DejaVuSans-43" x="63.476562"/>
     <use xlink:href="#DejaVuSans-48" x="133.300781"/>
     <use xlink:href="#DejaVuSans-32" x="208.496094"/>
     <use xlink:href="#DejaVuSans-33" x="272.119141"/>
     <use xlink:href="#DejaVuSans-2d" x="335.742188"/>
     <use xlink:href="#DejaVuSans-79" x="370.076172"/>
     <use xlink:href="#DejaVuSans-32" x="429.255859"/>
     <use xlink:href="#DejaVuSans-30" x="492.878906"/>
     <use xlink:href="#DejaVuSans-31" x="556.501953"/>
     <use xlink:href="#DejaVuSans-36" x="620.125"/>
     <use xlink:href="#DejaVuSans-2d" x="683.748047"/>
     <use xlink:href="#DejaVuSans-73" x="719.832031"/>
     <use xlink:href="#DejaVuSans-30" x="771.931641"/>
     <use xlink:href="#DejaVuSans-33" x="835.554688"/>
     <use xlink:href="#DejaVuSans-37" x="899.177734"/>
    </g>
   </g>
   <g id="line2d_15">
    <path d="M 63.840391 444.50272 
L 114.240391 444.50272 
" clip-path="url(#p90d87a5917)" style="fill: none; stroke: #000000; stroke-linecap: square"/>
   </g>
  </g>
  <g id="axes_4">
   <g id="patch_62">
    <path d="M 63.840391 774.678673 
L 114.240391 774.678673 
L 114.240391 629.517383 
L 63.840391 629.517383 
z
" style="fill: #ffffff"/>
   </g>
   <g id="matplotlib.axis_7">
    <g id="xtick_4">
     <g id="line2d_16">
      <g>
       <use xlink:href="#m3e56d95495" x="89.040391" y="774.678673" style="stroke: #000000"/>
      </g>
     </g>
     <g id="text_64">
      <!-- K140 -->
      <g transform="translate(92.351641 813.953048) rotate(-90) scale(0.12 -0.12)">
       <defs>
        <path id="DejaVuSans-4b" d="M 628 4666 
L 1259 4666 
L 1259 2694 
L 3353 4666 
L 4166 4666 
L 1850 2491 
L 4331 0 
L 3500 0 
L 1259 2247 
L 1259 0 
L 628 0 
L 628 4666 
z
" transform="scale(0.015625)"/>
       </defs>
       <use xlink:href="#DejaVuSans-4b"/>
       <use xlink:href="#DejaVuSans-31" x="65.576172"/>
       <use xlink:href="#DejaVuSans-34" x="129.199219"/>
       <use xlink:href="#DejaVuSans-30" x="192.822266"/>
      </g>
     </g>
    </g>
   </g>
   <g id="matplotlib.axis_8">
    <g id="ytick_10">
     <g id="line2d_17">
      <g>
       <use xlink:href="#mde11a7daab" x="63.840391" y="730.138877" style="stroke: #000000"/>
      </g>
     </g>
     <g id="text_65">
      <!-- −8 -->
      <g transform="translate(37.649766 734.697939) scale(0.12 -0.12)">
       <use xlink:href="#DejaVuSans-2212"/>
       <use xlink:href="#DejaVuSans-38" x="83.789062"/>
      </g>
     </g>
    </g>
    <g id="ytick_11">
     <g id="line2d_18">
      <g>
       <use xlink:href="#mde11a7daab" x="63.840391" y="683.12725" style="stroke: #000000"/>
      </g>
     </g>
     <g id="text_66">
      <!-- −4 -->
      <g transform="translate(37.649766 687.686313) scale(0.12 -0.12)">
       <use xlink:href="#DejaVuSans-2212"/>
       <use xlink:href="#DejaVuSans-34" x="83.789062"/>
      </g>
     </g>
    </g>
    <g id="ytick_12">
     <g id="line2d_19">
      <g>
       <use xlink:href="#mde11a7daab" x="63.840391" y="636.115623" style="stroke: #000000"/>
      </g>
     </g>
     <g id="text_67">
      <!-- 0 -->
      <g transform="translate(47.705391 640.674686) scale(0.12 -0.12)">
       <use xlink:href="#DejaVuSans-30"/>
      </g>
     </g>
    </g>
   </g>
   <g id="patch_63">
    <path d="M 63.840391 774.678673 
L 63.840391 629.517383 
" style="fill: none; stroke: #000000; stroke-width: 0.8; stroke-linejoin: miter; stroke-linecap: square"/>
   </g>
   <g id="patch_64">
    <path d="M 63.840391 774.678673 
L 114.240391 774.678673 
" style="fill: none; stroke: #000000; stroke-width: 0.8; stroke-linejoin: miter; stroke-linecap: square"/>
   </g>
   <g id="text_68">
    <g id="patch_65">
     <path d="M 71.040391 681.524113 
L 114.386641 681.524113 
L 114.386641 611.841613 
L 71.040391 611.841613 
L 71.040391 681.524113 
z
" style="fill: none"/>
    </g>
    <path d="M 75.191253 659.767274 
L 84.133063 659.767274 
L 84.133063 662.347721 
L 95.315175 662.347721 
L 95.315175 659.767274 
L 104.256985 659.767274 
L 104.256985 666.537809 
L 95.315175 666.537809 
L 95.315175 663.524963 
L 84.133063 663.524963 
L 84.133063 666.537809 
L 75.191253 666.537809 
L 75.191253 659.767274 
z
" style="fill: #e5e1af"/>
   </g>
   <g id="text_69">
    <g id="patch_66">
     <path d="M 71.040391 672.650668 
L 114.386641 672.650668 
L 114.386641 602.968168 
L 71.040391 602.968168 
L 71.040391 672.650668 
z
" style="fill: none"/>
    </g>
    <path d="M 89.709572 656.753082 
L 85.50052 657.214653 
L 93.957416 657.214653 
L 89.709572 656.753082 
z
M 84.259141 656.549148 
L 95.198796 656.549148 
L 107.408925 657.676918 
L 98.467115 657.676918 
L 95.68371 657.397754 
L 83.706339 657.397754 
L 80.981123 657.676918 
L 72.039313 657.676918 
L 84.259141 656.549148 
z
" style="fill: #e3dcad"/>
   </g>
   <g id="text_70">
    <g id="patch_67">
     <path d="M 71.040391 670.127319 
L 114.386641 670.127319 
L 114.386641 600.444819 
L 71.040391 600.444819 
L 71.040391 670.127319 
z
" style="fill: none"/>
    </g>
    <path d="M 74.648149 654.044136 
L 84.259141 654.044136 
L 96.866899 654.849234 
L 96.866899 654.044136 
L 104.741899 654.044136 
L 104.741899 655.151516 
L 95.198796 655.151516 
L 82.523149 654.346418 
L 82.523149 655.151516 
L 74.648149 655.151516 
L 74.648149 654.044136 
z
" style="fill: #e3dcac"/>
   </g>
   <g id="text_71">
    <g id="patch_68">
     <path d="M 71.040391 667.640404 
L 114.386641 667.640404 
L 114.386641 597.957904 
L 71.040391 597.957904 
L 71.040391 667.640404 
z
" style="fill: none"/>
    </g>
    <path d="M 97.468192 652.460044 
L 97.468192 652.264006 
L 91.34858 652.264006 
L 91.34858 652.093299 
L 105.285003 652.093299 
L 105.285003 652.56401 
Q 102.71496 652.614231 99.601813 652.640222 
Q 96.498365 652.665993 92.948796 652.665993 
Q 84.162158 652.665993 79.37121 652.527225 
Q 74.58996 652.388457 74.58996 652.133167 
Q 74.58996 651.873693 79.419701 651.736686 
Q 84.259141 651.59968 93.37552 651.59968 
Q 96.100735 651.59968 98.738666 651.617302 
Q 101.376598 651.634923 103.684787 651.667963 
L 103.684787 651.892856 
Q 101.803322 651.837789 99.359356 651.810035 
Q 96.925089 651.782062 94.015606 651.782062 
Q 88.924011 651.782062 86.40246 651.869287 
Q 83.890606 651.956293 83.890606 652.133167 
Q 83.890606 652.304535 86.315175 652.394184 
Q 88.739744 652.483612 93.37552 652.483612 
Q 94.772072 652.483612 95.800089 652.477885 
Q 96.828106 652.471938 97.468192 652.460044 
z
" style="fill: #e3dcac"/>
   </g>
   <g id="text_72">
    <g id="patch_69">
     <path d="M 71.040391 665.239285 
L 114.386641 665.239285 
L 114.386641 595.556785 
L 71.040391 595.556785 
L 71.040391 665.239285 
z
" style="fill: none"/>
    </g>
    <path d="M 84.133063 649.527338 
L 84.133063 650.103933 
L 86.557632 650.103933 
Q 91.833494 650.103933 94.073796 650.038184 
Q 96.314098 649.972251 96.314098 649.814712 
Q 96.314098 649.658281 94.073796 649.592902 
Q 91.833494 649.527338 86.557632 649.527338 
L 84.133063 649.527338 
z
M 75.191253 649.367398 
L 84.773149 649.367398 
Q 95.858279 649.367398 100.736511 649.4723 
Q 105.624442 649.577019 105.624442 649.814712 
Q 105.624442 650.053144 100.736511 650.158601 
Q 95.858279 650.263873 84.773149 650.263873 
L 75.191253 650.263873 
L 75.191253 649.367398 
z
" style="fill: #e2dbac"/>
   </g>
   <g id="text_73">
    <g id="patch_70">
     <path d="M 71.040391 663.226012 
L 114.386641 663.226012 
L 114.386641 593.543512 
L 71.040391 593.543512 
L 71.040391 663.226012 
z
" style="fill: none"/>
    </g>
    <path d="M 104.741899 647.511422 
L 85.50052 647.511422 
L 85.50052 647.704011 
L 103.015606 647.704011 
L 103.015606 647.860259 
L 85.50052 647.860259 
L 85.50052 648.250602 
L 76.55871 648.250602 
L 76.55871 647.355173 
L 104.741899 647.355173 
L 104.741899 647.511422 
z
" style="fill: #e2dbac"/>
   </g>
   <g id="text_74">
    <g id="patch_71">
     <path d="M 71.040391 661.21509 
L 114.386641 661.21509 
L 114.386641 591.53259 
L 71.040391 591.53259 
L 71.040391 661.21509 
z
" style="fill: none"/>
    </g>
    <path d="M 71.282848 645.353689 
L 80.922934 645.353689 
L 89.709572 645.709625 
L 98.525304 645.353689 
L 108.165391 645.353689 
L 94.199873 645.890514 
L 94.199873 646.239697 
L 85.258063 646.239697 
L 85.258063 645.890514 
L 71.282848 645.353689 
z
" style="fill: #e3ddad"/>
   </g>
   <g id="text_75">
    <g id="patch_72">
     <path d="M 71.040391 659.225323 
L 114.386641 659.225323 
L 114.386641 589.542823 
L 71.040391 589.542823 
L 71.040391 659.225323 
z
" style="fill: none"/>
    </g>
    <path d="M 104.315175 644.250061 
L 76.131985 644.250061 
L 76.131985 643.434703 
L 104.315175 643.434703 
L 104.315175 643.576979 
L 85.073796 643.576979 
L 85.073796 643.752347 
L 102.501598 643.752347 
L 102.501598 643.894623 
L 85.073796 643.894623 
L 85.073796 644.107785 
L 104.315175 644.107785 
L 104.315175 644.250061 
z
" style="fill: #e4dfae"/>
   </g>
   <g id="text_76">
    <g id="patch_73">
     <path d="M 71.040391 657.39422 
L 114.386641 657.39422 
L 114.386641 587.71172 
L 71.040391 587.71172 
L 71.040391 657.39422 
z
" style="fill: none"/>
    </g>
    <path d="M 86.499442 642.099654 
Q 79.739744 642.059963 77.34427 642.016391 
Q 74.948796 641.97282 74.948796 641.899107 
Q 74.948796 641.804504 78.886296 641.750487 
Q 82.833494 641.696322 89.709572 641.696322 
Q 92.832416 641.696322 95.955261 641.707364 
Q 99.078106 641.718256 102.133063 641.739594 
L 102.133063 641.873889 
Q 99.252675 641.842703 96.285003 641.826439 
Q 93.31733 641.810025 90.407848 641.810025 
Q 87.168623 641.810025 85.432632 641.830169 
Q 83.706339 641.850164 83.706339 641.887468 
Q 83.706339 641.916416 84.967115 641.935367 
Q 86.227891 641.954168 90.22358 641.976998 
L 94.073796 641.999381 
Q 99.533925 642.030119 102.103968 642.081002 
Q 104.68371 642.131885 104.68371 642.209179 
Q 104.68371 642.314676 100.62983 642.366603 
Q 96.585649 642.41853 88.410003 642.41853 
Q 85.044701 642.41853 81.660003 642.406295 
Q 78.285003 642.39391 75.133063 642.369587 
L 75.133063 642.227384 
Q 78.711727 642.266628 82.057632 642.285728 
Q 85.403537 642.304827 88.681554 642.304827 
Q 91.978968 642.304827 93.792546 642.281848 
Q 95.615822 642.258719 95.615822 642.217088 
Q 95.615822 642.185902 94.403537 642.162325 
Q 93.191253 642.138749 90.892761 642.12532 
L 86.499442 642.099654 
z
" style="fill: #e4dfae"/>
   </g>
   <g id="text_77">
    <g id="patch_74">
     <path d="M 71.040391 655.767618 
L 114.386641 655.767618 
L 114.386641 586.085118 
L 71.040391 586.085118 
L 71.040391 655.767618 
z
" style="fill: none"/>
    </g>
    <path d="M 84.889529 640.25424 
L 84.889529 640.443828 
L 88.555477 640.443828 
Q 92.948796 640.443828 94.72358 640.422674 
Q 96.498365 640.401387 96.498365 640.348968 
Q 96.498365 640.296548 94.72358 640.275394 
Q 92.948796 640.25424 88.555477 640.25424 
L 84.889529 640.25424 
z
M 75.947718 640.146873 
L 88.225735 640.146873 
Q 97.59427 640.146873 101.696641 640.194503 
Q 105.799011 640.242133 105.799011 640.348968 
Q 105.799011 640.455802 101.696641 640.503432 
Q 97.59427 640.551062 88.225735 640.551062 
L 84.889529 640.551062 
L 84.889529 640.792671 
L 75.947718 640.792671 
L 75.947718 640.146873 
z
" style="fill: #e3dcad"/>
   </g>
   <g id="text_78">
    <g id="patch_75">
     <path d="M 71.040391 654.317309 
L 114.386641 654.317309 
L 114.386641 584.634809 
L 71.040391 584.634809 
L 71.040391 654.317309 
z
" style="fill: none"/>
    </g>
    <path d="M 77.858279 639.342758 
L 77.858279 638.910639 
L 86.800089 638.910639 
L 86.800089 639.267355 
L 105.925089 639.267355 
L 105.925089 639.342758 
L 77.858279 639.342758 
z
" style="fill: #e4deae"/>
   </g>
   <g id="text_79">
    <g id="patch_76">
     <path d="M 71.040391 653.346872 
L 114.386641 653.346872 
L 114.386641 583.664372 
L 71.040391 583.664372 
L 71.040391 653.346872 
z
" style="fill: none"/>
    </g>
    <path d="M 94.199873 638.372439 
L 85.258063 638.372439 
L 85.258063 638.068006 
L 73.765606 638.068006 
L 73.765606 638.004482 
L 105.682632 638.004482 
L 105.682632 638.068006 
L 94.199873 638.068006 
L 94.199873 638.372439 
z
" style="fill: #e2daab"/>
   </g>
   <g id="text_80">
    <g id="patch_77">
     <path d="M 71.040391 652.520525 
L 114.386641 652.520525 
L 114.386641 582.838025 
L 71.040391 582.838025 
L 71.040391 652.520525 
z
" style="fill: none"/>
    </g>
    <path d="M 90.921856 637.503347 
Q 90.495132 637.503923 90.204184 637.504115 
Q 89.922934 637.504308 89.651382 637.504308 
Q 81.863666 637.504308 77.84858 637.470423 
Q 73.833494 637.436475 73.833494 637.370244 
Q 73.833494 637.303757 77.84858 637.269745 
Q 81.863666 637.235733 89.709572 637.235733 
Q 97.59427 637.235733 101.609356 637.269745 
Q 105.624442 637.303757 105.624442 637.370244 
Q 105.624442 637.41585 103.713882 637.446596 
Q 101.803322 637.477341 98.166468 637.490536 
L 103.801166 637.522178 
L 97.681554 637.548184 
L 90.921856 637.503347 
z
M 89.709572 637.281723 
Q 86.28608 637.281723 84.705261 637.302668 
Q 83.134141 637.323614 83.134141 637.370244 
Q 83.134141 637.416683 84.705261 637.437628 
Q 86.28608 637.45851 89.709572 637.45851 
Q 93.162158 637.45851 94.733279 637.437628 
Q 96.314098 637.416683 96.314098 637.370244 
Q 96.314098 637.323614 94.733279 637.302668 
Q 93.162158 637.281723 89.709572 637.281723 
z
" style="fill: #e1d8aa"/>
   </g>
   <g id="text_81">
    <g id="patch_78">
     <path d="M 71.040391 651.822285 
L 114.386641 651.822285 
L 114.386641 582.139785 
L 71.040391 582.139785 
L 71.040391 651.822285 
z
" style="fill: none"/>
    </g>
    <path d="M 73.649227 636.581558 
L 84.31733 636.581558 
L 89.709572 636.698439 
L 95.072718 636.581558 
L 105.799011 636.581558 
L 105.799011 636.848041 
L 98.108279 636.848041 
L 98.108279 636.634591 
L 93.31733 636.751088 
L 86.198796 636.751088 
L 81.349658 636.634591 
L 81.349658 636.848041 
L 73.649227 636.848041 
L 73.649227 636.581558 
z
" style="fill: #e2d9ab"/>
   </g>
   <g id="text_82">
    <g id="patch_79">
     <path d="M 71.040391 651.223827 
L 114.386641 651.223827 
L 114.386641 581.541327 
L 71.040391 581.541327 
L 71.040391 651.223827 
z
" style="fill: none"/>
    </g>
    <path d="M 89.709572 636.240098 
L 97.681554 636.190096 
L 106.681554 636.190096 
L 95.926166 636.249966 
L 83.53177 636.249966 
L 72.766684 636.190096 
L 81.766684 636.190096 
L 89.709572 636.240098 
z
" style="fill: #e2d9ab"/>
   </g>
   <g id="text_83">
    <g id="patch_80">
     <path d="M 71.040391 651.072466 
L 114.386641 651.072466 
L 114.386641 581.389966 
L 71.040391 581.389966 
L 71.040391 651.072466 
z
" style="fill: none"/>
    </g>
    <path d="M 76.258063 636.087181 
L 76.258063 636.084749 
L 103.199873 636.084749 
L 103.199873 636.087181 
L 94.199873 636.087181 
L 94.199873 636.096258 
L 103.199873 636.096258 
L 103.199873 636.09869 
L 76.258063 636.09869 
L 76.258063 636.096258 
L 85.258063 636.096258 
L 85.258063 636.087181 
L 76.258063 636.087181 
z
" style="fill: #e1d7aa"/>
   </g>
   <g id="text_84">
    <g id="patch_81">
     <path d="M 71.040391 650.898574 
L 114.386641 650.898574 
L 114.386641 581.216074 
L 71.040391 581.216074 
L 71.040391 650.898574 
z
" style="fill: none"/>
    </g>
    <path d="M 95.499442 635.862508 
Q 96.828106 635.863267 97.81733 635.866166 
Q 98.806554 635.869038 100.222503 635.877247 
L 108.407848 635.924581 
L 98.593192 635.924581 
L 93.133063 635.89139 
Q 92.890606 635.889927 92.502675 635.887489 
Q 90.107201 635.872587 86.858279 635.872587 
L 84.016684 635.872587 
L 84.016684 635.924581 
L 75.074873 635.924581 
L 75.074873 635.793066 
L 87.983279 635.793066 
Q 96.711727 635.793066 100.513451 635.802061 
Q 104.315175 635.811029 104.315175 635.83135 
Q 104.315175 635.844897 102.045779 635.852917 
Q 99.776382 635.86091 95.499442 635.862508 
z
M 84.016684 635.814931 
L 84.016684 635.850749 
L 88.225735 635.850749 
Q 91.891684 635.850749 93.482201 635.846604 
Q 95.072718 635.842431 95.072718 635.832786 
Q 95.072718 635.823222 93.491899 635.819076 
Q 91.920779 635.814931 88.225735 635.814931 
L 84.016684 635.814931 
z
" style="fill: #e0d4a8"/>
   </g>
   <g id="text_85">
    <!-- SCH23-y2021-s056 -->
    <g transform="translate(7.2 623.517383) scale(0.17 -0.17)">
     <defs>
      <path id="DejaVuSans-35" d="M 691 4666 
L 3169 4666 
L 3169 4134 
L 1269 4134 
L 1269 2991 
Q 1406 3038 1543 3061 
Q 1681 3084 1819 3084 
Q 2600 3084 3056 2656 
Q 3513 2228 3513 1497 
Q 3513 744 3044 326 
Q 2575 -91 1722 -91 
Q 1428 -91 1123 -41 
Q 819 9 494 109 
L 494 744 
Q 775 591 1075 516 
Q 1375 441 1709 441 
Q 2250 441 2565 725 
Q 2881 1009 2881 1497 
Q 2881 1984 2565 2268 
Q 2250 2553 1709 2553 
Q 1456 2553 1204 2497 
Q 953 2441 691 2322 
L 691 4666 
z
" transform="scale(0.015625)"/>
     </defs>
     <use xlink:href="#DejaVuSans-53"/>
     <use xlink:href="#DejaVuSans-43" x="63.476562"/>
     <use xlink:href="#DejaVuSans-48" x="133.300781"/>
     <use xlink:href="#DejaVuSans-32" x="208.496094"/>
     <use xlink:href="#DejaVuSans-33" x="272.119141"/>
     <use xlink:href="#DejaVuSans-2d" x="335.742188"/>
     <use xlink:href="#DejaVuSans-79" x="370.076172"/>
     <use xlink:href="#DejaVuSans-32" x="429.255859"/>
     <use xlink:href="#DejaVuSans-30" x="492.878906"/>
     <use xlink:href="#DejaVuSans-32" x="556.501953"/>
     <use xlink:href="#DejaVuSans-31" x="620.125"/>
     <use xlink:href="#DejaVuSans-2d" x="683.748047"/>
     <use xlink:href="#DejaVuSans-73" x="719.832031"/>
     <use xlink:href="#DejaVuSans-30" x="771.931641"/>
     <use xlink:href="#DejaVuSans-35" x="835.554688"/>
     <use xlink:href="#DejaVuSans-36" x="899.177734"/>
    </g>
   </g>
   <g id="line2d_20">
    <path d="M 63.840391 636.115623 
L 114.240391 636.115623 
" clip-path="url(#p08ca53c2cf)" style="fill: none; stroke: #000000; stroke-linecap: square"/>
   </g>
  </g>
  <g id="text_86">
   <!-- escape -->
   <g transform="translate(30.021328 444.845705) rotate(-90) scale(0.17 -0.17)">
    <defs>
     <path id="DejaVuSans-65" d="M 3597 1894 
L 3597 1613 
L 953 1613 
Q 991 1019 1311 708 
Q 1631 397 2203 397 
Q 2534 397 2845 478 
Q 3156 559 3463 722 
L 3463 178 
Q 3153 47 2828 -22 
Q 2503 -91 2169 -91 
Q 1331 -91 842 396 
Q 353 884 353 1716 
Q 353 2575 817 3079 
Q 1281 3584 2069 3584 
Q 2775 3584 3186 3129 
Q 3597 2675 3597 1894 
z
M 3022 2063 
Q 3016 2534 2758 2815 
Q 2500 3097 2075 3097 
Q 1594 3097 1305 2825 
Q 1016 2553 972 2059 
L 3022 2063 
z
" transform="scale(0.015625)"/>
     <path id="DejaVuSans-63" d="M 3122 3366 
L 3122 2828 
Q 2878 2963 2633 3030 
Q 2388 3097 2138 3097 
Q 1578 3097 1268 2742 
Q 959 2388 959 1747 
Q 959 1106 1268 751 
Q 1578 397 2138 397 
Q 2388 397 2633 464 
Q 2878 531 3122 666 
L 3122 134 
Q 2881 22 2623 -34 
Q 2366 -91 2075 -91 
Q 1284 -91 818 406 
Q 353 903 353 1747 
Q 353 2603 823 3093 
Q 1294 3584 2113 3584 
Q 2378 3584 2631 3529 
Q 2884 3475 3122 3366 
z
" transform="scale(0.015625)"/>
     <path id="DejaVuSans-61" d="M 2194 1759 
Q 1497 1759 1228 1600 
Q 959 1441 959 1056 
Q 959 750 1161 570 
Q 1363 391 1709 391 
Q 2188 391 2477 730 
Q 2766 1069 2766 1631 
L 2766 1759 
L 2194 1759 
z
M 3341 1997 
L 3341 0 
L 2766 0 
L 2766 531 
Q 2569 213 2275 61 
Q 1981 -91 1556 -91 
Q 1019 -91 701 211 
Q 384 513 384 1019 
Q 384 1609 779 1909 
Q 1175 2209 1959 2209 
L 2766 2209 
L 2766 2266 
Q 2766 2663 2505 2880 
Q 2244 3097 1772 3097 
Q 1472 3097 1187 3025 
Q 903 2953 641 2809 
L 641 3341 
Q 956 3463 1253 3523 
Q 1550 3584 1831 3584 
Q 2591 3584 2966 3190 
Q 3341 2797 3341 1997 
z
" transform="scale(0.015625)"/>
     <path id="DejaVuSans-70" d="M 1159 525 
L 1159 -1331 
L 581 -1331 
L 581 3500 
L 1159 3500 
L 1159 2969 
Q 1341 3281 1617 3432 
Q 1894 3584 2278 3584 
Q 2916 3584 3314 3078 
Q 3713 2572 3713 1747 
Q 3713 922 3314 415 
Q 2916 -91 2278 -91 
Q 1894 -91 1617 61 
Q 1341 213 1159 525 
z
M 3116 1747 
Q 3116 2381 2855 2742 
Q 2594 3103 2138 3103 
Q 1681 3103 1420 2742 
Q 1159 2381 1159 1747 
Q 1159 1113 1420 752 
Q 1681 391 2138 391 
Q 2594 391 2855 752 
Q 3116 1113 3116 1747 
z
" transform="scale(0.015625)"/>
    </defs>
    <use xlink:href="#DejaVuSans-65"/>
    <use xlink:href="#DejaVuSans-73" x="61.523438"/>
    <use xlink:href="#DejaVuSans-63" x="113.623047"/>
    <use xlink:href="#DejaVuSans-61" x="168.603516"/>
    <use xlink:href="#DejaVuSans-70" x="229.882812"/>
    <use xlink:href="#DejaVuSans-65" x="293.359375"/>
   </g>
  </g>
 </g>
 <defs>
  <clipPath id="p2e528d614d">
   <rect x="63.840391" y="54.678673" width="50.4" height="145.16129"/>
  </clipPath>
  <clipPath id="pe54836880f">
   <rect x="63.840391" y="246.291576" width="50.4" height="145.16129"/>
  </clipPath>
  <clipPath id="p90d87a5917">
   <rect x="63.840391" y="437.90448" width="50.4" height="145.16129"/>
  </clipPath>
  <clipPath id="p08ca53c2cf">
   <rect x="63.840391" y="629.517383" width="50.4" height="145.16129"/>
  </clipPath>
 </defs>
</svg>
